<svg width="9" height="14" viewBox="0 0 9 14" fill="none" xmlns="http://www.w3.org/2000/svg">
                                                                <path fill-rule="evenodd" clip-rule="evenodd" d="M2.25071 2.31606C1.95395 2.62801 1.78685 3.03895 1.78616 3.45849L1.77492 10.3064C1.77377 11.0056 2.05005 11.6618 2.54297 12.1307C3.0359 12.5996 3.7051 12.8428 4.40335 12.8068C5.1016 12.7708 5.77171 12.4584 6.26626 11.9386C6.76081 11.4187 7.03929 10.7338 7.04044 10.0346L7.05168 3.18671C7.05216 2.89571 7.28814 2.64765 7.57875 2.63265C7.86936 2.61765 8.10456 2.84139 8.10409 3.13239L8.09284 9.98032C8.09123 10.959 7.70143 11.9176 7.0092 12.6453C6.31696 13.373 5.37898 13.8101 4.40162 13.8606C3.42425 13.911 2.48756 13.5706 1.79759 12.9143C1.10763 12.2579 0.72091 11.3394 0.722517 10.3607L0.733762 3.51281C0.734909 2.81379 1.01333 2.12908 1.50777 1.60932C2.00221 1.08955 2.67217 0.777309 3.37026 0.741276C4.06836 0.705244 4.73741 0.948375 5.23023 1.41718C5.72304 1.88599 5.99926 2.54207 5.99811 3.24109L5.98314 10.0929C5.98245 10.5123 5.81541 10.9231 5.51877 11.235C5.22213 11.5468 4.82018 11.7341 4.40136 11.7557C3.98253 11.7774 3.58113 11.6315 3.28546 11.3502C2.98979 11.069 2.82408 10.6753 2.82476 10.256L2.83887 3.93286C2.83952 3.64185 3.07563 3.39392 3.36624 3.37909C3.65686 3.36426 3.89192 3.58815 3.89127 3.87916L3.87717 10.2016C3.87702 10.3414 3.93229 10.4729 4.03085 10.5667C4.12947 10.6605 4.26337 10.7091 4.40309 10.7019C4.5428 10.6947 4.67688 10.6322 4.77583 10.5282C4.87479 10.4242 4.93051 10.2872 4.93074 10.1473L4.94571 3.29541C4.94632 2.87598 4.78055 2.48204 4.48484 2.20074C4.18906 1.91937 3.78752 1.77345 3.36853 1.79508C2.94955 1.8167 2.54746 2.0041 2.25071 2.31606Z" fill="#999999"/>
                                                            </svg>  