<svg width="51" height="50" viewBox="0 0 51 50" fill="none" xmlns="http://www.w3.org/2000/svg">
<circle cx="25.25" cy="25" r="25" fill="url(#paint0_linear)"/>
<path opacity="0.2" fill-rule="evenodd" clip-rule="evenodd" d="M7.66965 42.7745C3.08839 38.2429 0.25 31.9529 0.25 25C0.25 11.1929 11.4429 0 25.25 0C31.9653 0 38.0622 2.64767 42.5537 6.95604L7.66965 42.7745Z" fill="url(#paint1_linear)"/>
<path fill-rule="evenodd" clip-rule="evenodd" d="M13.75 14C12.0931 14 10.75 15.3431 10.75 17V29C10.75 30.3538 11.6467 31.4981 12.8785 31.8715C12.795 31.5957 12.75 31.3031 12.75 31V19C12.75 17.3431 14.0931 16 15.75 16H31.75C32.0531 16 32.3457 16.045 32.6215 16.1285C32.2481 14.8967 31.1038 14 29.75 14H13.75Z" fill="white"/>
<g filter="url(#filter0_d)">
<path fill-rule="evenodd" clip-rule="evenodd" d="M17.75 18C16.0931 18 14.75 19.3431 14.75 21V33C14.75 34.6569 16.0931 36 17.75 36H33.75C35.4069 36 36.75 34.6569 36.75 33V21C36.75 19.3431 35.4069 18 33.75 18H17.75ZM23.75 30.4641L29.75 27L23.75 23.5359V30.4641Z" fill="white"/>
</g>
<defs>
<filter id="filter0_d" x="13.75" y="18" width="24" height="20" filterUnits="userSpaceOnUse" color-interpolation-filters="sRGB">
<feFlood flood-opacity="0" result="BackgroundImageFix"/>
<feColorMatrix in="SourceAlpha" type="matrix" values="0 0 0 0 0 0 0 0 0 0 0 0 0 0 0 0 0 0 127 0"/>
<feOffset dy="1"/>
<feGaussianBlur stdDeviation="0.5"/>
<feColorMatrix type="matrix" values="0 0 0 0 0 0 0 0 0 0 0 0 0 0 0 0 0 0 0.25 0"/>
<feBlend mode="normal" in2="BackgroundImageFix" result="effect1_dropShadow"/>
<feBlend mode="normal" in="SourceGraphic" in2="effect1_dropShadow" result="shape"/>
</filter>
<linearGradient id="paint0_linear" x1="8.25" y1="6.5" x2="38.25" y2="41" gradientUnits="userSpaceOnUse">
<stop stop-color="#A6ED36"/>
<stop offset="1" stop-color="#547477"/>
</linearGradient>
<linearGradient id="paint1_linear" x1="39.25" y1="6" x2="4.75" y2="39" gradientUnits="userSpaceOnUse">
<stop/>
<stop offset="1" stop-opacity="0"/>
</linearGradient>
</defs>
</svg>
