<svg width="51" height="50" viewBox="0 0 51 50" fill="none" xmlns="http://www.w3.org/2000/svg">
<circle cx="25.25" cy="25" r="25" fill="url(#paint0_linear)"/>
<path opacity="0.1" fill-rule="evenodd" clip-rule="evenodd" d="M7.66965 42.7745C3.08839 38.2429 0.25 31.9529 0.25 25C0.25 11.1929 11.4429 0 25.25 0C31.9653 0 38.0622 2.64767 42.5537 6.95604L7.66965 42.7745Z" fill="url(#paint1_linear)"/>
<g filter="url(#filter0_d)">
<path fill-rule="evenodd" clip-rule="evenodd" d="M33.4492 26.0186V32.7547C33.4492 33.9637 32.5422 35 31.3054 35H19.1853C18.031 35 17.0416 33.9637 17.0416 32.7547V26.0186H16.1346C14.3207 26.0186 13.5787 23.6006 14.9803 22.3916L23.9674 13.5829C24.7094 12.8057 25.8637 12.8057 26.6058 13.5829L35.6753 22.5643C36.9121 23.7733 36.0051 26.0186 34.3561 26.0186H33.4492ZM25.2866 23.5142C27.2654 23.5142 28.9144 25.2414 28.9144 27.4004C28.9144 29.473 27.2654 31.2002 25.2866 31.2002C23.2253 31.2002 21.5763 29.473 21.5763 27.4004C21.5763 25.2414 23.2253 23.5142 25.2866 23.5142Z" fill="white"/>
</g>
<defs>
<filter id="filter0_d" x="13.25" y="13" width="24" height="24" filterUnits="userSpaceOnUse" color-interpolation-filters="sRGB">
<feFlood flood-opacity="0" result="BackgroundImageFix"/>
<feColorMatrix in="SourceAlpha" type="matrix" values="0 0 0 0 0 0 0 0 0 0 0 0 0 0 0 0 0 0 127 0"/>
<feOffset dy="1"/>
<feGaussianBlur stdDeviation="0.5"/>
<feColorMatrix type="matrix" values="0 0 0 0 0 0 0 0 0 0 0 0 0 0 0 0 0 0 0.25 0"/>
<feBlend mode="normal" in2="BackgroundImageFix" result="effect1_dropShadow"/>
<feBlend mode="normal" in="SourceGraphic" in2="effect1_dropShadow" result="shape"/>
</filter>
<linearGradient id="paint0_linear" x1="8.25" y1="6.5" x2="38.25" y2="41" gradientUnits="userSpaceOnUse">
<stop stop-color="#ED5936"/>
<stop offset="1" stop-color="#FFD302"/>
</linearGradient>
<linearGradient id="paint1_linear" x1="39.25" y1="6" x2="4.75" y2="39" gradientUnits="userSpaceOnUse">
<stop/>
<stop offset="1" stop-opacity="0"/>
</linearGradient>
</defs>
</svg>
