<svg width="51" height="50" viewBox="0 0 51 50" fill="none" xmlns="http://www.w3.org/2000/svg">
<circle cx="25.25" cy="25" r="25" fill="url(#paint0_linear)"/>
<path opacity="0.2" fill-rule="evenodd" clip-rule="evenodd" d="M7.66965 42.7745C3.08839 38.2429 0.25 31.9529 0.25 25C0.25 11.1929 11.4429 0 25.25 0C31.9653 0 38.0622 2.64767 42.5537 6.95604L7.66965 42.7745Z" fill="url(#paint1_linear)"/>
<path fill-rule="evenodd" clip-rule="evenodd" d="M18 15.5C16.3431 15.5 15 16.8431 15 18.5V30.5H36V18.5C36 16.8431 34.6569 15.5 33 15.5H18ZM28.4283 21.3545C28.7523 21.5908 29.2202 21.5531 29.4549 21.2279C29.6497 20.9579 29.6138 20.5819 29.3498 20.3789C28.2254 19.5142 26.8174 19 25.2892 19C23.7611 19 22.353 19.5142 21.2286 20.3789C20.9647 20.5819 20.9287 20.9579 21.1236 21.2279C21.3583 21.5531 21.8261 21.5908 22.1501 21.3545C23.0309 20.7123 24.1158 20.3333 25.2892 20.3333C26.4627 20.3333 27.5476 20.7123 28.4283 21.3545ZM22.7378 22.586C22.5056 22.7786 22.4879 23.1183 22.6644 23.363C22.913 23.7075 23.4295 23.7091 23.7795 23.4683C24.2087 23.1729 24.7289 23 25.2893 23C25.8498 23 26.3699 23.1729 26.7991 23.4682C27.1491 23.709 27.6655 23.7073 27.9141 23.3629C28.0907 23.1182 28.073 22.7784 27.8407 22.5859C27.1483 22.0118 26.2591 21.6667 25.2893 21.6667C24.3195 21.6667 23.4303 22.0118 22.7378 22.586ZM26.6227 25.6667C26.6227 26.403 26.0258 27 25.2894 27C24.553 27 23.9561 26.403 23.9561 25.6667C23.9561 24.9303 24.553 24.3333 25.2894 24.3333C26.0258 24.3333 26.6227 24.9303 26.6227 25.6667Z" fill="white"/>
<path fill-rule="evenodd" clip-rule="evenodd" d="M22.75 31.5H12.75V32.5C12.75 33.0523 13.1977 33.5 13.75 33.5H37.75C38.3023 33.5 38.75 33.0523 38.75 32.5V31.5H28.75C28.75 32.0523 28.3023 32.5 27.75 32.5H23.75C23.1977 32.5 22.75 32.0523 22.75 31.5Z" fill="white"/>
<defs>
<linearGradient id="paint0_linear" x1="8.25" y1="6.5" x2="38.25" y2="41" gradientUnits="userSpaceOnUse">
<stop stop-color="#7469AE"/>
<stop offset="1" stop-color="#CC7045"/>
</linearGradient>
<linearGradient id="paint1_linear" x1="39.25" y1="6" x2="4.75" y2="39" gradientUnits="userSpaceOnUse">
<stop/>
<stop offset="1" stop-opacity="0"/>
</linearGradient>
</defs>
</svg>
