<svg width="16" height="16" viewBox="0 0 16 16" fill="none" xmlns="http://www.w3.org/2000/svg">
<path fill-rule="evenodd" clip-rule="evenodd" d="M0.635541 2.16971C1.04247 1.76278 1.59439 1.53417 2.16987 1.53417H7.23291C7.63238 1.53417 7.95621 1.858 7.95621 2.25746C7.95621 2.65692 7.63238 2.98075 7.23291 2.98075H2.16987C1.97805 2.98075 1.79407 3.05696 1.65843 3.1926C1.52279 3.32824 1.44658 3.51221 1.44658 3.70404V13.8301C1.44658 14.022 1.52279 14.2059 1.65843 14.3416C1.79407 14.4772 1.97805 14.5534 2.16987 14.5534H12.296C12.4878 14.5534 12.6718 14.4772 12.8074 14.3416C12.943 14.2059 13.0192 14.022 13.0192 13.8301V8.76708C13.0192 8.36762 13.3431 8.04379 13.7425 8.04379C14.142 8.04379 14.4658 8.36762 14.4658 8.76708V13.8301C14.4658 14.4056 14.2372 14.9575 13.8303 15.3645C13.4234 15.7714 12.8714 16 12.296 16H2.16987C1.59439 16 1.04247 15.7714 0.635541 15.3645C0.228611 14.9575 0 14.4056 0 13.8301V3.70404C0 3.12856 0.228611 2.57664 0.635541 2.16971Z" fill="white"/>
<path fill-rule="evenodd" clip-rule="evenodd" d="M13.7425 1.44658C13.5274 1.44658 13.3211 1.53203 13.169 1.68413L6.43944 8.41374L6.05711 9.94305L7.58642 9.56073L14.316 2.83112C14.4681 2.67902 14.5536 2.47273 14.5536 2.25762C14.5536 2.04252 14.4681 1.83623 14.316 1.68413C14.1639 1.53203 13.9576 1.44658 13.7425 1.44658ZM12.1462 0.661243C12.5695 0.237856 13.1438 0 13.7425 0C14.3413 0 14.9155 0.237856 15.3389 0.661243C15.7623 1.08463 16.0002 1.65886 16.0002 2.25762C16.0002 2.85638 15.7623 3.43062 15.3389 3.85401L8.46765 10.7253C8.37496 10.818 8.25881 10.8837 8.13163 10.9155L5.23846 11.6388C4.99198 11.7004 4.73125 11.6282 4.5516 11.4486C4.37194 11.2689 4.29973 11.0082 4.36134 10.7617L5.08464 7.86853C5.11643 7.74135 5.18219 7.62521 5.27489 7.53251L12.1462 0.661243Z" fill="white"/>
</svg>
