<svg width="51" height="50" viewBox="0 0 51 50" fill="none" xmlns="http://www.w3.org/2000/svg">
<circle cx="25.75" cy="25" r="25" fill="url(#paint0_linear)"/>
<path opacity="0.3" fill-rule="evenodd" clip-rule="evenodd" d="M7.66965 42.7745C3.08839 38.2429 0.25 31.9529 0.25 25C0.25 11.1929 11.4429 0 25.25 0C31.9653 0 38.0622 2.64767 42.5537 6.95604L7.66965 42.7745Z" fill="url(#paint1_linear)"/>
<circle cx="25.5" cy="25.5" r="13.5" stroke="white" stroke-width="2" stroke-dasharray="200 30"/>
<path fill-rule="evenodd" clip-rule="evenodd" d="M25.5 36C31.299 36 36 31.299 36 25.5C36 19.701 31.299 15 25.5 15C19.701 15 15 19.701 15 25.5C15 31.299 19.701 36 25.5 36ZM27.9953 21.616C27.3446 21.0187 26.4753 20.72 25.3873 20.72C24.6726 20.72 24.0433 20.8587 23.4993 21.136C22.966 21.4133 22.5553 21.8027 22.2673 22.304C21.9793 22.8053 21.8353 23.376 21.8353 24.016H23.5473C23.5473 23.4613 23.7126 23.0293 24.0433 22.72C24.374 22.4107 24.8273 22.256 25.4033 22.256C25.9793 22.256 26.4273 22.416 26.7473 22.736C27.078 23.056 27.2433 23.4987 27.2433 24.064C27.2433 24.8427 26.966 25.3707 26.4113 25.648C25.8673 25.9253 25.078 26.064 24.0433 26.064H23.5153L23.5953 28.576H25.1793L25.2433 27.312C26.374 27.312 27.2806 27.04 27.9633 26.496C28.646 25.952 28.9873 25.1413 28.9873 24.064C28.9873 23.0293 28.6566 22.2133 27.9953 21.616ZM23.5313 31.776C23.7553 32 24.0326 32.112 24.3633 32.112C24.6833 32.112 24.9553 32 25.1793 31.776C25.4033 31.552 25.5153 31.2747 25.5153 30.944C25.5153 30.6133 25.4033 30.336 25.1793 30.112C24.9553 29.888 24.6833 29.776 24.3633 29.776C24.0326 29.776 23.7553 29.888 23.5313 30.112C23.3073 30.336 23.1953 30.6133 23.1953 30.944C23.1953 31.2747 23.3073 31.552 23.5313 31.776Z" fill="white"/>
<defs>
<linearGradient id="paint0_linear" x1="8.75" y1="6.5" x2="38.75" y2="41" gradientUnits="userSpaceOnUse">
<stop stop-color="#6C36ED"/>
<stop offset="1" stop-color="#C159E0"/>
</linearGradient>
<linearGradient id="paint1_linear" x1="39.25" y1="6" x2="4.75" y2="39" gradientUnits="userSpaceOnUse">
<stop/>
<stop offset="1" stop-opacity="0"/>
</linearGradient>
</defs>
</svg>
