<svg width="51" height="50" viewBox="0 0 51 50" fill="none" xmlns="http://www.w3.org/2000/svg">
<circle cx="25.25" cy="25" r="25" fill="url(#paint0_linear)"/>
<path opacity="0.2" fill-rule="evenodd" clip-rule="evenodd" d="M7.66965 42.7745C3.08839 38.2429 0.25 31.9529 0.25 25C0.25 11.1929 11.4429 0 25.25 0C31.9653 0 38.0622 2.64767 42.5537 6.95604L7.66965 42.7745Z" fill="url(#paint1_linear)"/>
<path fill-rule="evenodd" clip-rule="evenodd" d="M19.75 14H17.75C15.5409 14 13.75 15.7909 13.75 18V20H15.75V18C15.75 16.8954 16.6454 16 17.75 16H19.75V14ZM31.75 16V14H33.75C35.9591 14 37.75 15.7909 37.75 18V20H35.75V18C35.75 16.8954 34.8546 16 33.75 16H31.75ZM31.75 36H33.75C34.8546 36 35.75 35.1046 35.75 34V32H37.75V34C37.75 36.2091 35.9591 38 33.75 38H31.75V36ZM15.75 32V34C15.75 35.1046 16.6454 36 17.75 36H19.75V38H17.75C15.5409 38 13.75 36.2091 13.75 34V32H15.75Z" fill="white"/>
<rect opacity="0.7" x="35.75" y="26" width="20" height="13" transform="rotate(-180 35.75 26)" fill="url(#paint2_linear)"/>
<rect x="35.75" y="27" width="20" height="1" transform="rotate(-180 35.75 27)" fill="white"/>
<defs>
<linearGradient id="paint0_linear" x1="8.25" y1="6.5" x2="38.25" y2="41" gradientUnits="userSpaceOnUse">
<stop stop-color="#5093D0"/>
<stop offset="1" stop-color="#477381"/>
</linearGradient>
<linearGradient id="paint1_linear" x1="39.25" y1="6" x2="4.75" y2="39" gradientUnits="userSpaceOnUse">
<stop/>
<stop offset="1" stop-opacity="0"/>
</linearGradient>
<linearGradient id="paint2_linear" x1="45.75" y1="26" x2="45.75" y2="39" gradientUnits="userSpaceOnUse">
<stop offset="0.0520833" stop-color="white" stop-opacity="0.86"/>
<stop offset="0.28125" stop-color="white" stop-opacity="0.54"/>
<stop offset="1" stop-color="white" stop-opacity="0"/>
</linearGradient>
</defs>
</svg>
